<?xml version="1.0" encoding="UTF-8"?>
<svg version="1.1" xmlns="http://www.w3.org/2000/svg" width="800" height="800">
<path d="M0 0 C3.92387566 1.30795855 4.2734936 2.7373968 6.265625 6.30859375 C7.21804077 7.99782959 7.21804077 7.99782959 8.18969727 9.72119141 C8.87649669 10.95994328 9.5632634 12.1987133 10.25 13.4375 C10.96632588 14.71331272 11.68370709 15.98853343 12.40209961 17.26318359 C13.88243388 19.8906333 15.35906736 22.52011126 16.83349609 25.15087891 C20.02694518 30.83744218 23.29471932 36.48092735 26.5625 42.125 C27.80353174 44.27335298 29.04441698 46.4217906 30.28515625 48.5703125 C30.89762207 49.63024414 31.51008789 50.69017578 32.14111328 51.78222656 C35.26324605 57.18670645 38.38141204 62.59347412 41.5 68 C42.74998122 70.1666775 43.99998121 72.33334417 45.25 74.5 C67.75 113.5 67.75 113.5 69.62524414 116.75048828 C70.87435518 118.91557071 72.12354129 121.08060982 73.37280273 123.24560547 C76.51202309 128.68615706 79.64990563 134.12747216 82.78515625 139.5703125 C88.80747329 150.02206199 94.84669337 160.46299548 100.9375 170.875 C106.35921178 180.14499777 111.70204915 189.45831752 117.01922607 198.78845215 C122.22045129 207.9128284 127.48027878 217.00132774 132.78344727 226.06689453 C138.93766742 236.59084625 145.02369996 247.15380137 151.10888672 257.71777344 C154.23680148 263.14659942 157.36858448 268.57319281 160.5 274 C161.75001879 276.16665583 163.00001878 278.3333225 164.25 280.5 C165.178125 282.10875 165.178125 282.10875 166.125 283.75 C276.75 475.5 276.75 475.5 278.62524414 478.75048828 C279.87435518 480.91557071 281.12354129 483.08060982 282.37280273 485.24560547 C285.51202309 490.68615706 288.64990563 496.12747216 291.78515625 501.5703125 C297.80747329 512.02206199 303.84669337 522.46299548 309.9375 532.875 C315.35921178 542.14499777 320.70204915 551.45831752 326.01922607 560.78845215 C331.22045129 569.9128284 336.48027878 579.00132774 341.78344727 588.06689453 C346.02617279 595.32211736 350.2399661 602.59354142 354.4375 609.875 C355.05367187 610.94379395 355.66984375 612.01258789 356.3046875 613.11376953 C358.87906931 617.58072422 361.45225923 622.04836421 364.02441406 626.51660156 C365.38115258 628.87346291 366.73833221 631.23006924 368.09594727 633.58642578 C369.36546119 635.79006869 370.63423268 637.99413955 371.90209961 640.19873047 C375.1661782 645.86384007 378.48419282 651.48308046 381.93139648 657.0390625 C383 659 383 659 383 661 C130.88 661 -121.24 661 -381 661 C-371.88623817 642.77247634 -371.88623817 642.77247634 -368.4375 637.125 C-367.58470735 635.69995419 -366.73323586 634.27411725 -365.8828125 632.84765625 C-365.42551758 632.08211426 -364.96822266 631.31657227 -364.49707031 630.52783203 C-361.55797633 625.56511528 -358.6899456 620.56112287 -355.8125 615.5625 C-355.17497803 614.45600098 -354.53745605 613.34950195 -353.88061523 612.20947266 C-352.57203157 609.93812311 -351.26368385 607.66663761 -349.95556641 605.39501953 C-346.80667946 599.9283002 -343.65316736 594.46425113 -340.5 589 C-339.2499765 586.83334689 -337.99997653 584.66668021 -336.75 582.5 C-329.25 569.5 -321.75 556.5 -314.25 543.5 C-313.63116943 542.42733887 -313.01233887 541.35467773 -312.37475586 540.24951172 C-311.12564482 538.08442929 -309.87645871 535.91939018 -308.62719727 533.75439453 C-305.48797691 528.31384294 -302.35009437 522.87252784 -299.21484375 517.4296875 C-293.19252671 506.97793801 -287.15330663 496.53700452 -281.0625 486.125 C-275.98724877 477.44737759 -270.97741233 468.73394432 -266 460 C-260.4599827 450.27884383 -254.86625191 440.59105342 -249.21655273 430.93310547 C-243.06233258 420.40915375 -236.97630004 409.84619863 -230.89111328 399.28222656 C-227.76319852 393.85340058 -224.63141552 388.42680719 -221.5 383 C-220.24998121 380.83334417 -218.99998122 378.6666775 -217.75 376.5 C-180.25 311.5 -142.75 246.5 -105.25 181.5 C-104.63116943 180.42733887 -104.01233887 179.35467773 -103.37475586 178.24951172 C-102.12564482 176.08442929 -100.87645871 173.91939018 -99.62719727 171.75439453 C-96.48797691 166.31384294 -93.35009437 160.87252784 -90.21484375 155.4296875 C-84.19252671 144.97793801 -78.15330663 134.53700452 -72.0625 124.125 C-66.98724877 115.44737759 -61.97741233 106.73394432 -57 98 C-51.4599827 88.27884383 -45.86625191 78.59105342 -40.21655273 68.93310547 C-35.97382697 61.67788222 -31.76009652 54.40642277 -27.5625 47.125 C-26.94705322 46.05765625 -26.33160645 44.9903125 -25.69750977 43.890625 C-22.77117083 38.81367676 -19.84732345 33.73530522 -16.92692566 28.65493774 C-15.90350745 26.8749866 -14.87946987 25.09539331 -13.85522461 23.31591797 C-12.57221373 21.08650663 -11.29039912 18.85640624 -10.01000977 16.62548828 C-6.77819012 11.01164661 -3.47438493 5.46723968 0 0 Z M-189 330 C-185.04214571 337.25606619 -181.06739375 344.49349184 -177 351.6875 C-176.44094971 352.67661377 -175.88189941 353.66572754 -175.3059082 354.68481445 C-170.7525052 362.7180333 -166.11075684 370.69742201 -161.44335938 378.66479492 C-156.90968689 386.4135594 -152.44406499 394.19968731 -148 402 C-142.46031101 411.72134099 -136.86624937 421.40895092 -131.21655273 431.06689453 C-125.06233258 441.59084625 -118.97630004 452.15380137 -112.89111328 462.71777344 C-109.76319852 468.14659942 -106.63141552 473.57319281 -103.5 479 C-102.24998121 481.16665583 -100.99998122 483.3333225 -99.75 485.5 C-99.13125 486.5725 -98.5125 487.645 -97.875 488.75 C-32.25 602.5 -32.25 602.5 -30.37280273 605.75390625 C-29.13023981 607.9076172 -27.88756511 610.06126367 -26.64477539 612.21484375 C-23.74685377 617.23684262 -20.84996651 622.25942807 -17.95724487 627.28442383 C-16.94052802 629.05045522 -15.92344342 630.81627431 -14.90625 632.58203125 C-13.63599127 634.78734155 -12.36640982 636.99304216 -11.09765625 639.19921875 C-9.40510718 642.13673169 -7.70285426 645.06845308 -6 648 C-5.16106201 649.46953125 -5.16106201 649.46953125 -4.30517578 650.96875 C-3.77263184 651.8865625 -3.24008789 652.804375 -2.69140625 653.75 C-2.22033447 654.56984375 -1.7492627 655.3896875 -1.26391602 656.234375 C-0.63827759 657.10835937 -0.63827759 657.10835937 0 658 C0.66 658 1.32 658 2 658 C2.37584229 657.34854004 2.75168457 656.69708008 3.13891602 656.02587891 C9.02880859 645.81673177 14.91870117 635.60758464 20.80859375 625.3984375 C21.41896484 624.34043945 22.02933594 623.28244141 22.65820312 622.19238281 C23.89510728 620.04845933 25.13208754 617.90457974 26.36914062 615.76074219 C29.50958117 610.31807441 32.64868634 604.87464455 35.78515625 599.4296875 C41.80747329 588.97793801 47.84669337 578.53700452 53.9375 568.125 C59.01275123 559.44737759 64.02258767 550.73394432 69 542 C74.5400173 532.27884383 80.13374809 522.59105342 85.78344727 512.93310547 C91.93766742 502.40915375 98.02369996 491.84619863 104.10888672 481.28222656 C107.23680148 475.85340058 110.36858448 470.42680719 113.5 465 C114.75001879 462.83334417 116.00001878 460.6666775 117.25 458.5 C129.75 436.83333333 142.25 415.16666667 154.75 393.5 C155.67872925 391.89016235 155.67872925 391.89016235 156.6262207 390.24780273 C157.8720577 388.08840605 159.11798818 385.92906331 160.36401367 383.76977539 C163.55348953 378.24232403 166.74116885 372.71384879 169.92578125 367.18359375 C171.22124666 364.9348339 172.51681806 362.6861351 173.8125 360.4375 C174.43326416 359.35992432 175.05402832 358.28234863 175.69360352 357.17211914 C179.81776574 350.0226542 183.97822933 342.8957708 188.20825195 335.80834961 C190.14322991 333.07731063 190.14322991 333.07731063 191 330 C65.6 330 -59.8 330 -189 330 Z " fill="#575BE4" transform="translate(399,70)"/>
</svg>
